<svg width="33" height="31" viewBox="0 0 33 31" fill="none" xmlns="http://www.w3.org/2000/svg">
<path d="M9.76127 30.5535C6.08458 29.3699 2.27001 25.842 0.97168 16.6922C0.97168 16.6922 6.34884 24.2487 8.30208 22.7921C10.2553 21.3354 1.75298 18.3423 7.02673 10.1029C12.3005 1.8635 10.3587 1.57898 9.96808 0.03125C9.96808 0.03125 28.4894 10.285 20.8833 25.5461C18.8381 29.6544 14.1618 31.9647 9.76127 30.5535Z" fill="black"/>
<path d="M28.5551 13.2598C30.1293 12.7457 31.7719 11.2149 32.3195 7.25096C32.3195 7.25096 30.0152 10.5295 29.1711 9.88981C28.3384 9.26151 31.9772 7.95922 29.7186 4.39506C27.46 0.830902 28.2927 0.705242 28.4639 0.03125C28.4639 0.03125 20.5245 4.47503 23.7869 11.0893C24.6653 12.8714 26.6729 13.8652 28.5551 13.2598Z" fill="black"/>
</svg>
