<svg width="56" height="58" viewBox="0 0 56 58" fill="none" xmlns="http://www.w3.org/2000/svg">
<path d="M28.6461 26.9426C29.4451 27.2364 30.3028 27.7416 31.1958 28.5171C36.213 32.8763 38.2927 34.4861 38.2927 34.4861C38.2927 34.4861 36.8827 29.7274 34.4035 26.9191C34.2273 26.7311 33.9805 26.6371 33.722 26.6606L28.6461 26.9426ZM21.5962 29.8919L21.2084 29.6099C21.2084 29.6099 17.2605 26.2494 20.9264 23.6527C23.3234 21.9489 25.8849 21.15 27.7061 20.3392C29.1161 19.7047 29.7271 19.4815 32.4178 18.3887L36.5772 16.7438V16.7203C38.7745 16.6028 40.7367 15.6275 42.1349 14.1235L42.1467 14.1353C42.1467 14.1353 50.7241 19.2347 54.2138 33.7811C54.39 34.5331 54.531 35.2968 54.672 36.0488C55.33 39.7852 56.2113 47.6342 49.5961 51.1121C49.2083 51.3236 48.7736 51.4529 48.3741 51.6409C46.9994 52.2636 42.6284 53.1684 34.7913 45.1667L27.7061 39.3035L26.6369 40.3727L12.6898 54.3316L11.6675 55.3421C11.2798 55.7298 10.6688 55.8121 10.187 55.5418L1.44514 50.5246C1.02214 50.2779 0.845894 49.7491 1.05739 49.2909L1.25714 48.8561C1.25714 48.8561 1.93863 47.2112 3.71286 46.2124C6.46233 44.6614 9.0473 47.2582 9.0473 47.2582L21.5962 29.8919Z" fill="white"/>
<path d="M36.0721 0C40.7015 0 44.4497 3.74821 44.4497 8.37766C44.4497 10.5984 43.5802 12.6194 42.135 14.1233C40.7368 15.6273 38.7746 16.6026 36.5773 16.7201C36.4128 16.7436 36.2483 16.7436 36.0721 16.7436C31.4544 16.7436 27.7062 12.9954 27.7062 8.37766C27.7062 3.74821 31.4544 0 36.0721 0Z" fill="white"/>
<path d="M26.6366 40.3726L19.2107 56.7989C19.0227 57.2101 18.5409 57.3746 18.1532 57.1866L12.9833 54.6251L12.6895 54.3314L26.6366 40.3726Z" fill="white"/>
</svg>
