<svg width="84" height="93" viewBox="0 0 84 93" fill="none" xmlns="http://www.w3.org/2000/svg">
<path d="M74.4191 20.0291C86.6191 37.8591 82.0591 62.2091 64.2291 74.4191C46.3991 86.6191 22.0491 82.0591 9.83913 64.2291C-2.36087 46.3991 2.19913 22.0491 20.0291 9.83913C37.8591 -2.36087 62.2091 2.19913 74.4191 20.0291ZM58.4691 62.7991C64.0991 59.8391 63.3491 53.1591 62.7891 49.9791C62.6691 49.3391 62.5491 48.6891 62.3991 48.0491C59.4291 35.6691 52.1291 31.3291 52.1291 31.3291L52.1191 31.3191C53.3491 30.0391 54.0891 28.3191 54.0891 26.4291C54.0891 22.4891 50.8991 19.2991 46.9591 19.2991C43.0291 19.2991 39.8391 22.4891 39.8391 26.4291C39.8391 30.3591 43.0291 33.5491 46.9591 33.5491C47.1091 33.5491 47.2491 33.5491 47.3891 33.5291V33.5491L43.8491 34.9491C41.5591 35.8791 41.0391 36.0691 39.8391 36.6091C38.2891 37.2991 36.1091 37.9791 34.0691 39.4291C30.9491 41.6391 34.3091 44.4991 34.3091 44.4991L34.6391 44.7391L23.9591 59.5191C23.9591 59.5191 21.7591 57.3091 19.4191 58.6291C17.9091 59.4791 17.3291 60.8791 17.3291 60.8791L17.1591 61.2491C16.9791 61.6391 17.1291 62.0891 17.4891 62.2991L24.9291 66.5691C25.3391 66.7991 25.8591 66.7291 26.1891 66.3991L27.0591 65.5391L27.3091 65.7891L31.7091 67.9691C32.0391 68.1291 32.4491 67.9891 32.6091 67.6391L38.9291 53.6591L39.8391 52.7491L45.8691 57.7391C52.5391 64.5491 56.2591 63.7791 57.4291 63.2491C57.7691 63.0891 58.1391 62.9791 58.4691 62.7991Z" fill="#5CC2D7"/>
<path d="M34.6391 44.7393L34.3091 44.4993C34.3091 44.4993 30.9491 41.6393 34.0691 39.4293C36.1091 37.9793 38.2891 37.2993 39.8391 36.6093C41.0391 36.0693 41.5591 35.8793 43.8491 34.9493L47.3891 33.5493V33.5293C49.2591 33.4293 50.9291 32.5993 52.1191 31.3193L52.1291 31.3293C52.1291 31.3293 59.4291 35.6693 62.3991 48.0493C62.5491 48.6893 62.6691 49.3393 62.7891 49.9793C63.3491 53.1593 64.0991 59.8393 58.4691 62.7993C58.1391 62.9793 57.7691 63.0893 57.4291 63.2493C56.2591 63.7793 52.5391 64.5493 45.8691 57.7393L39.8391 52.7493L38.9291 53.6593L27.0591 65.5393L26.1891 66.3993C25.8591 66.7293 25.3391 66.7993 24.9291 66.5693L17.4891 62.2993C17.1291 62.0893 16.9791 61.6393 17.1591 61.2493L17.3291 60.8793C17.3291 60.8793 17.9091 59.4793 19.4191 58.6293C21.7591 57.3093 23.9591 59.5193 23.9591 59.5193L34.6391 44.7393ZM40.6391 42.2293C41.3191 42.4793 42.0491 42.9093 42.8091 43.5693C47.0791 47.2793 48.8491 48.6493 48.8491 48.6493C48.8491 48.6493 47.6491 44.5993 45.5391 42.2093C45.3891 42.0493 45.1791 41.9693 44.9591 41.9893L40.6391 42.2293Z" fill="#5CC2D7"/>
<path d="M46.9591 19.2993C50.8991 19.2993 54.0891 22.4893 54.0891 26.4293C54.0891 28.3193 53.3491 30.0393 52.1191 31.3193C50.9291 32.5993 49.2591 33.4293 47.3891 33.5293C47.2491 33.5493 47.1091 33.5493 46.9591 33.5493C43.0291 33.5493 39.8391 30.3593 39.8391 26.4293C39.8391 22.4893 43.0291 19.2993 46.9591 19.2993Z" fill="#5CC2D7"/>
<path d="M45.5391 42.2093C47.6491 44.5993 48.8491 48.6493 48.8491 48.6493C48.8491 48.6493 47.0791 47.2793 42.8091 43.5693C42.0491 42.9093 41.3191 42.4793 40.6391 42.2293L44.9591 41.9893C45.1791 41.9693 45.3891 42.0493 45.5391 42.2093Z" fill="#5CC2D7"/>
<path d="M38.9291 53.6592L32.6091 67.6392C32.4491 67.9892 32.0391 68.1292 31.7091 67.9692L27.3091 65.7892L27.0591 65.5392L38.9291 53.6592Z" fill="#5CC2D7"/>
<path d="M74.4191 20.0291C86.6191 37.8591 82.0591 62.2091 64.2291 74.4191C46.3991 86.6191 22.0491 82.0591 9.83913 64.2291C-2.36087 46.3991 2.19913 22.0491 20.0291 9.83913C37.8591 -2.36087 62.2091 2.19913 74.4191 20.0291Z" stroke="white" stroke-width="5" stroke-miterlimit="10" stroke-linejoin="round"/>
<path d="M64.4091 74.6792L73.6991 88.2492" stroke="white" stroke-width="14" stroke-miterlimit="10" stroke-linejoin="round"/>
<path d="M44.5291 11.3193C48.0391 11.7493 53.2391 13.0193 58.9291 16.8393C62.8691 19.4893 65.9091 22.6093 68.0891 25.2393" stroke="#F6F6F6" stroke-width="2" stroke-miterlimit="10" stroke-linecap="round" stroke-linejoin="round"/>
</svg>
