<svg width="84" height="93" viewBox="0 0 84 93" fill="none" xmlns="http://www.w3.org/2000/svg">
<path d="M40.6393 42.2293C41.3193 42.4793 42.0493 42.9093 42.8093 43.5693C47.0793 47.2793 48.8493 48.6493 48.8493 48.6493C48.8493 48.6493 47.6493 44.5993 45.5393 42.2093C45.3893 42.0493 45.1793 41.9693 44.9593 41.9893L40.6393 42.2293ZM34.6393 44.7393L34.3093 44.4993C34.3093 44.4993 30.9493 41.6393 34.0693 39.4293C36.1093 37.9793 38.2893 37.2993 39.8393 36.6093C41.0393 36.0693 41.5593 35.8793 43.8493 34.9493L47.3893 33.5493V33.5293C49.2593 33.4293 50.9293 32.5993 52.1193 31.3193L52.1293 31.3293C52.1293 31.3293 59.4293 35.6693 62.3993 48.0493C62.5493 48.6893 62.6693 49.3393 62.7893 49.9793C63.3493 53.1593 64.0993 59.8393 58.4693 62.7993C58.1393 62.9793 57.7693 63.0893 57.4293 63.2493C56.2593 63.7793 52.5393 64.5493 45.8693 57.7393L39.8393 52.7493L38.9293 53.6593L27.0593 65.5393L26.1893 66.3993C25.8593 66.7293 25.3393 66.7993 24.9293 66.5693L17.4893 62.2993C17.1293 62.0893 16.9793 61.6393 17.1593 61.2493L17.3293 60.8793C17.3293 60.8793 17.9093 59.4793 19.4193 58.6293C21.7593 57.3093 23.9593 59.5193 23.9593 59.5193L34.6393 44.7393Z" fill="white"/>
<path d="M46.9594 19.2988C50.8994 19.2988 54.0894 22.4888 54.0894 26.4288C54.0894 28.3188 53.3494 30.0388 52.1194 31.3188C50.9294 32.5988 49.2594 33.4288 47.3894 33.5288C47.2494 33.5488 47.1094 33.5488 46.9594 33.5488C43.0294 33.5488 39.8394 30.3588 39.8394 26.4288C39.8394 22.4888 43.0294 19.2988 46.9594 19.2988Z" fill="white"/>
<path d="M45.5391 42.2093C47.6491 44.5993 48.8491 48.6493 48.8491 48.6493C48.8491 48.6493 47.0791 47.2793 42.8091 43.5693C42.0491 42.9093 41.3191 42.4793 40.6391 42.2293L44.9591 41.9893C45.1791 41.9693 45.3891 42.0493 45.5391 42.2093Z" fill="#5CC2D7"/>
<path d="M38.9291 53.6592L32.6091 67.6392C32.4491 67.9892 32.0391 68.1292 31.7091 67.9692L27.3091 65.7892L27.0591 65.5392L38.9291 53.6592Z" fill="white"/>
<path d="M74.4191 20.0291C86.6191 37.8591 82.0591 62.2091 64.2291 74.4191C46.3991 86.6191 22.0491 82.0591 9.83913 64.2291C-2.36087 46.3991 2.19913 22.0491 20.0291 9.83913C37.8591 -2.36087 62.2091 2.19913 74.4191 20.0291Z" stroke="white" stroke-width="5" stroke-miterlimit="10" stroke-linejoin="round"/>
<path d="M64.4091 74.6792L73.6991 88.2492" stroke="white" stroke-width="14" stroke-miterlimit="10" stroke-linejoin="round"/>
<path d="M44.5291 11.3193C48.0391 11.7493 53.2391 13.0193 58.9291 16.8393C62.8691 19.4893 65.9091 22.6093 68.0891 25.2393" stroke="#F6F6F6" stroke-width="2" stroke-miterlimit="10" stroke-linecap="round" stroke-linejoin="round"/>
</svg>
