<svg width="39" height="33" viewBox="0 0 39 33" fill="none" xmlns="http://www.w3.org/2000/svg">
<path d="M18.9718 28.1241C19.3046 28.7601 20.0137 29.4102 21.2583 30.0603C27.8571 33.5229 33.9785 31.9259 33.9785 31.9259" stroke="#00ACC1" stroke-miterlimit="10" stroke-linecap="round" stroke-linejoin="round"/>
<path d="M18.9718 28.1242C24.7748 28.8732 31.0698 27.997 34.9336 25.8347C36.0479 25.2128 36.728 23.955 36.4386 22.7396C36.0189 20.8599 33.4864 19.1075 23.0237 23.0081C23.0237 23.0081 17.5102 25.3824 18.9718 28.1242Z" stroke="#00ACC1" stroke-miterlimit="10" stroke-linecap="round" stroke-linejoin="round"/>
<path d="M8.14722 22.3439C8.46558 23.8985 9.86929 25.3965 12.9372 26.612C14.7895 27.3469 16.8444 27.8415 18.9717 28.1242" stroke="#00ACC1" stroke-miterlimit="10" stroke-linecap="round" stroke-linejoin="round"/>
<path d="M8.14739 22.3439C11.3455 22.5559 15.7303 22.3439 21.7359 21.3828C21.7359 21.3828 37.032 18.4856 38.2765 13.2565C38.2765 13.2565 38.3489 7.82953 26.7285 10.119C21.5478 11.1507 16.5697 13.1293 12.1993 16.0407C9.59452 17.7649 7.71325 20.1109 8.14739 22.3439Z" stroke="#00ACC1" stroke-miterlimit="10" stroke-linecap="round" stroke-linejoin="round"/>
<path d="M33.1102 0.932758C33.1102 0.932758 14.4712 -1.78073 2.6193 11.6595C-1.59183 16.4364 1.88127 21.5666 6.38182 22.1743C6.93173 22.245 7.51058 22.3015 8.14731 22.3439" stroke="#00ACC1" stroke-miterlimit="10" stroke-linecap="round" stroke-linejoin="round"/>
</svg>
