<svg width="34" height="34" viewBox="0 0 34 34" fill="none" xmlns="http://www.w3.org/2000/svg">
<path d="M15.181 26.5667C18.0819 27.7633 19.218 31.7882 19.0488 33.2627C18.3719 33.3473 17.6951 33.3957 16.9941 33.3957C11.3737 33.3957 6.41816 30.5674 3.46899 26.2524L3.80742 26.0228C3.80742 26.0228 7.01041 20.8617 10.02 21.6716C13.0175 22.4814 12.2923 25.3701 15.181 26.5667Z" fill="#00ACC1"/>
<path d="M33.3957 16.994C33.3957 17.828 33.3353 18.6499 33.2023 19.4597C29.9873 20.3178 27.4249 18.1301 25.6239 14.7821C23.823 11.4462 14.2624 13.5009 14.2624 13.5009C14.2624 13.5009 10.4551 13.1988 10.6606 9.80238C10.866 6.40601 8.89589 3.0338 8.89589 3.0338L8.77502 2.81624C11.1924 1.41418 13.9965 0.60437 16.994 0.60437C26.047 0.60437 33.3957 7.94102 33.3957 16.994Z" fill="#00ACC1"/>
<path d="M8.77501 2.81624C11.1924 1.41418 13.9965 0.60437 16.994 0.60437C26.047 0.60437 33.3957 7.94102 33.3957 16.994C33.3957 17.828 33.3353 18.6499 33.2023 19.4597C32.1266 26.6876 26.325 32.3562 19.0487 33.2627C18.3719 33.3473 17.695 33.3957 16.994 33.3957C11.3737 33.3957 6.41809 30.5674 3.46893 26.2524C1.65592 23.6175 0.60437 20.4266 0.60437 16.994C0.60437 10.9385 3.89196 5.64454 8.77501 2.81624Z" stroke="#00ACC1" stroke-miterlimit="10" stroke-linecap="round" stroke-linejoin="round"/>
<path d="M8.89587 3.03381C8.89587 3.03381 10.866 6.40601 10.6605 9.80239C10.4551 13.1988 14.2624 13.5009 14.2624 13.5009C14.2624 13.5009 23.823 11.4462 25.6239 14.7821C27.4248 18.1302 29.9872 20.3179 33.2023 19.4597" stroke="#00ACC1" stroke-miterlimit="10" stroke-linecap="round" stroke-linejoin="round"/>
<path d="M3.80737 26.0228C3.80737 26.0228 7.01036 20.8617 10.02 21.6716C13.0175 22.4814 12.2923 25.3701 15.181 26.5667C18.0818 27.7633 19.218 31.7882 19.0488 33.2627" stroke="#00ACC1" stroke-miterlimit="10" stroke-linecap="round" stroke-linejoin="round"/>
</svg>
