<svg width="32" height="31" viewBox="0 0 32 31" fill="none" xmlns="http://www.w3.org/2000/svg">
<path d="M8.78959 30.5222C5.1129 29.3387 1.29833 25.8108 0 16.6609C0 16.6609 5.37716 24.2175 7.3304 22.7608C9.28364 21.3041 0.781296 18.3111 6.05505 10.0717C11.3288 1.83225 9.38705 1.54773 8.9964 0C8.9964 0 27.5177 10.2537 19.9116 25.5149C17.8664 29.6232 13.1901 31.9334 8.78959 30.5222Z" fill="black"/>
<path d="M27.5834 13.2285C29.1576 12.7145 30.8002 11.1837 31.3478 7.21971C31.3478 7.21971 29.0435 10.4983 28.1994 9.85856C27.3667 9.23026 31.0056 7.92797 28.747 4.36381C26.4883 0.799652 27.3211 0.673992 27.4922 0C27.4922 0 19.5528 4.44378 22.8153 11.058C23.6936 12.8401 25.7013 13.834 27.5834 13.2285Z" fill="black"/>
</svg>
