<svg width="29" height="29" viewBox="0 0 29 29" fill="none" xmlns="http://www.w3.org/2000/svg">
<g clip-path="url(#clip0)">
<path d="M27.4449 16.2393C28.6446 8.84696 23.6245 1.88168 16.2321 0.681944C8.83977 -0.517791 1.87449 4.50234 0.674753 11.8947C-0.524981 19.2871 4.49514 26.2524 11.8875 27.4521C19.2799 28.6518 26.2452 23.6317 27.4449 16.2393Z" stroke="black" stroke-miterlimit="10" stroke-linecap="round" stroke-linejoin="round"/>
<path d="M7.36011 2.51025C7.36011 2.51025 8.99011 5.30025 8.82011 8.11025C8.65011 10.9203 11.8001 11.1703 11.8001 11.1703C11.8001 11.1703 19.7101 9.47025 21.2001 12.2303C22.6901 15.0003 24.8101 16.8103 27.4701 16.0903" stroke="black" stroke-miterlimit="10" stroke-linecap="round" stroke-linejoin="round"/>
<path d="M3.1499 21.5303C3.1499 21.5303 5.7999 17.2503 8.2899 17.9203C10.7799 18.5903 10.1699 20.9803 12.5699 21.9703C14.9599 22.9603 15.9099 26.2903 15.7699 27.5103" stroke="black" stroke-miterlimit="10" stroke-linecap="round" stroke-linejoin="round"/>
</g>
<defs>
<clipPath id="clip0">
<rect width="28.13" height="28.13" fill="white"/>
</clipPath>
</defs>
</svg>
