<svg width="29" height="31" viewBox="0 0 29 31" fill="none" xmlns="http://www.w3.org/2000/svg">
<g clip-path="url(#clip0)">
<path d="M14.9243 26.1161C19.474 26.1161 23.1623 22.4664 23.1623 17.9643C23.1623 13.4622 19.474 9.8125 14.9243 9.8125C10.3746 9.8125 6.68628 13.4622 6.68628 17.9643C6.68628 22.4664 10.3746 26.1161 14.9243 26.1161Z" stroke="white" stroke-miterlimit="10"/>
<path d="M7.80504 22.5803C7.80504 22.5803 -4.96254 38.4285 11.0263 25.4285C27.3128 12.1785 33.5297 -2.83934 22.2058 8.47316L19.6523 11.0357" stroke="white" stroke-miterlimit="10"/>
<path d="M1.29934 17.5267C1.76776 17.5267 2.1475 17.151 2.1475 16.6874C2.1475 16.2239 1.76776 15.8481 1.29934 15.8481C0.830908 15.8481 0.451172 16.2239 0.451172 16.6874C0.451172 17.151 0.830908 17.5267 1.29934 17.5267Z" fill="white" stroke="white" stroke-miterlimit="10"/>
<path d="M15.4745 4.08915C16.4911 4.08915 17.3152 3.27366 17.3152 2.26772C17.3152 1.26177 16.4911 0.446289 15.4745 0.446289C14.4579 0.446289 13.6338 1.26177 13.6338 2.26772C13.6338 3.27366 14.4579 4.08915 15.4745 4.08915Z" fill="white" stroke="white" stroke-miterlimit="10"/>
<path d="M25.1292 28.6161C25.8418 28.6161 26.4195 28.0444 26.4195 27.3393C26.4195 26.6341 25.8418 26.0625 25.1292 26.0625C24.4166 26.0625 23.8389 26.6341 23.8389 27.3393C23.8389 28.0444 24.4166 28.6161 25.1292 28.6161Z" fill="white" stroke="white" stroke-miterlimit="10"/>
<path d="M27.9082 13.8929C28.262 13.8929 28.5489 13.609 28.5489 13.2589C28.5489 12.9088 28.262 12.625 27.9082 12.625C27.5544 12.625 27.2676 12.9088 27.2676 13.2589C27.2676 13.609 27.5544 13.8929 27.9082 13.8929Z" fill="white" stroke="white" stroke-miterlimit="10"/>
</g>
<defs>
<clipPath id="clip0">
<rect width="29" height="31" fill="white"/>
</clipPath>
</defs>
</svg>
