<svg width="41" height="43" viewBox="0 0 41 43" fill="none" xmlns="http://www.w3.org/2000/svg">
<path d="M21.0995 36.2255C27.5319 36.2255 32.7464 31.163 32.7464 24.9182C32.7464 18.6733 27.5319 13.6108 21.0995 13.6108C14.6671 13.6108 9.45264 18.6733 9.45264 24.9182C9.45264 31.163 14.6671 36.2255 21.0995 36.2255Z" stroke="black" stroke-miterlimit="10"/>
<path d="M11.0345 31.3211C11.0345 31.3211 -7.01622 53.3041 15.5886 35.2719C38.6145 16.8928 47.4038 -3.93839 31.3942 11.7531L27.784 15.3076" stroke="black" stroke-miterlimit="10"/>
<path d="M1.83695 24.3114C2.49921 24.3114 3.03608 23.7902 3.03608 23.1472C3.03608 22.5043 2.49921 21.983 1.83695 21.983C1.17469 21.983 0.637817 22.5043 0.637817 23.1472C0.637817 23.7902 1.17469 24.3114 1.83695 24.3114Z" fill="black" stroke="black" stroke-miterlimit="10"/>
<path d="M21.8778 5.67226C23.315 5.67226 24.4801 4.54111 24.4801 3.14576C24.4801 1.75041 23.315 0.619263 21.8778 0.619263C20.4405 0.619263 19.2754 1.75041 19.2754 3.14576C19.2754 4.54111 20.4405 5.67226 21.8778 5.67226Z" fill="black" stroke="black" stroke-miterlimit="10"/>
<path d="M35.5273 39.6933C36.5348 39.6933 37.3515 38.9004 37.3515 37.9223C37.3515 36.9442 36.5348 36.1512 35.5273 36.1512C34.5199 36.1512 33.7031 36.9442 33.7031 37.9223C33.7031 38.9004 34.5199 39.6933 35.5273 39.6933Z" fill="black" stroke="black" stroke-miterlimit="10"/>
<path d="M39.4564 19.2707C39.9566 19.2707 40.3621 18.877 40.3621 18.3914C40.3621 17.9058 39.9566 17.5121 39.4564 17.5121C38.9562 17.5121 38.5507 17.9058 38.5507 18.3914C38.5507 18.877 38.9562 19.2707 39.4564 19.2707Z" fill="black" stroke="black" stroke-miterlimit="10"/>
</svg>
