<svg width="19" height="30" viewBox="0 0 19 30" fill="none" xmlns="http://www.w3.org/2000/svg">
<path d="M17.424 24.4969C17.3028 24.6712 17.1154 24.9436 16.8729 25.2597L16.6966 25.1289C15.8811 21.5001 9.76447 15.997 6.94312 13.6432C4.12178 11.3003 4.46343 8.95744 4.46343 8.95744C6.64556 4.22805 8.91586 0.5448 8.91586 0.5448C8.91586 0.5448 22.174 15.0163 17.424 24.4969Z" fill="#010202"/>
<path d="M4.95939 28.8993C-2.40256 27.1994 0.903707 16.6836 4.46345 8.95744C6.64559 4.22805 8.91589 0.5448 8.91589 0.5448C8.91589 0.5448 22.174 15.0163 17.424 24.4969" stroke="black" stroke-miterlimit="10" stroke-linecap="round" stroke-linejoin="round"/>
<path d="M4.95947 28.8993C5.85216 29.1608 8.96005 30.0326 12.1561 28.8448C14.4925 27.973 16.0465 26.3276 16.873 25.2596C17.1155 24.9436 17.3029 24.6712 17.4241 24.4968" stroke="black" stroke-miterlimit="10" stroke-linecap="round" stroke-linejoin="round"/>
<path d="M4.46343 8.9574C4.46343 8.9574 4.12178 11.3003 6.94312 13.6432C9.76447 15.997 15.8811 21.5001 16.6966 25.1288" stroke="black" stroke-miterlimit="10" stroke-linecap="round" stroke-linejoin="round"/>
</svg>
