<svg width="27" height="24" viewBox="0 0 27 24" fill="none" xmlns="http://www.w3.org/2000/svg">
<g clip-path="url(#clip0)">
<path d="M22.89 0.659832C22.89 0.659832 10.01 -1.26017 1.80999 8.24983C-1.10001 11.6198 1.29999 15.2598 4.40999 15.6898C6.68999 15.9998 10.06 15.9398 15.02 15.1298C15.02 15.1298 25.59 13.0798 26.45 9.37983C26.45 9.37983 26.5 5.53983 18.47 7.15983C14.88 7.88983 11.44 9.27983 8.41999 11.3398C5.37999 13.4098 3.75999 16.7098 8.93999 18.8198C13.71 20.7598 20.49 20.3598 24.14 18.2698C24.91 17.8298 25.37 16.9398 25.18 16.0798C24.88 14.7598 23.14 13.5098 15.91 16.2798C15.91 16.2798 10.13 18.8198 14.69 21.2698C19.25 23.7198 23.48 22.5898 23.48 22.5898" stroke="white" stroke-miterlimit="10" stroke-linecap="round" stroke-linejoin="round"/>
</g>
<defs>
<clipPath id="clip0">
<rect width="26.95" height="23.35" fill="white"/>
</clipPath>
</defs>
</svg>
