<svg width="28" height="29" viewBox="0 0 28 29" fill="none" xmlns="http://www.w3.org/2000/svg">
<path d="M8.15 27.32C4.95 26.28 1.63 23.18 0.5 15.14C0.5 15.14 5.18 21.78 6.88 20.5C8.58 19.22 1.18 16.59 5.77 9.35C10.36 2.11 8.67 1.86 8.33 0.5C8.33 0.5 24.45 9.51 17.83 22.92C16.05 26.53 11.98 28.56 8.15 27.32Z" stroke="white" stroke-miterlimit="10" stroke-linecap="round" stroke-linejoin="round"/>
<path d="M23.6599 12.08C25.0399 11.63 26.4799 10.29 26.9599 6.82C26.9599 6.82 24.9399 9.69 24.1999 9.13C23.4699 8.58 26.6599 7.44 24.6799 4.32C22.6999 1.2 23.4299 1.09 23.5799 0.5C23.5799 0.5 16.6199 4.39 19.4799 10.18C20.2499 11.74 22.0099 12.61 23.6599 12.08Z" stroke="white" stroke-miterlimit="10" stroke-linecap="round" stroke-linejoin="round"/>
</svg>
