<svg width="25" height="23" viewBox="0 0 25 23" fill="none" xmlns="http://www.w3.org/2000/svg">
<path d="M6.75785 12.0995C6.32009 12.0972 5.88234 12.1085 5.44683 12.1556C4.71724 12.2319 3.58132 12.2207 2.63398 11.747C1.08724 10.9726 0.301532 8.10133 1.8101 6.89807C3.03581 5.91929 4.05724 5.5893 6.40315 6.25827C6.40315 6.25827 6.91948 -0.267634 14.606 1.22073C15.4119 1.37787 16.1887 1.77297 16.8284 2.4195C17.457 3.05256 18.0721 4.01338 18.1911 5.39399C18.1911 5.39399 20.0364 4.5746 21.6684 5.02134C23.6754 5.57134 24.6407 8.83317 23.5362 11.0511C23.1972 11.7313 22.6876 12.2454 21.9154 12.205L6.75785 12.0995Z" fill="#B1EBF2" stroke="#B1EBF2" stroke-miterlimit="10" stroke-linecap="round" stroke-linejoin="round"/>
<path d="M7.07656 12.7705L5.05615 16.3623" stroke="#B1EBF2" stroke-miterlimit="10" stroke-linecap="round" stroke-linejoin="round"/>
<path d="M10.3923 12.7705L5.50513 22.1991" stroke="#B1EBF2" stroke-miterlimit="10" stroke-linecap="round" stroke-linejoin="round"/>
<path d="M14.2604 12.9951L12.689 15.9135" stroke="#B1EBF2" stroke-miterlimit="10" stroke-linecap="round" stroke-linejoin="round"/>
<path d="M12.9156 17.4854L10.3923 22.1996" stroke="#B1EBF2" stroke-miterlimit="10" stroke-linecap="round" stroke-linejoin="round"/>
<path d="M17.8051 12.9951L14.9338 19.0563" stroke="#B1EBF2" stroke-miterlimit="10" stroke-linecap="round" stroke-linejoin="round"/>
<path d="M20.2901 12.9951L18.5256 17.0359" stroke="#B1EBF2" stroke-miterlimit="10" stroke-linecap="round" stroke-linejoin="round"/>
</svg>
