<svg width="12" height="13" viewBox="0 0 12 13" fill="none" xmlns="http://www.w3.org/2000/svg">
<path d="M-0.5 0C-7.40312 0 -13 5.59688 -13 12.5H-8.28438C-8.28438 8.33125 -4.90312 4.95312 -0.737499 4.95312C3.42813 4.95312 6.8125 8.33125 6.8125 12.5H12C12 5.59688 6.40313 0 -0.5 0Z" fill="#E0EB69"/>
<path d="M-0.499853 1.65039C-6.4936 1.65039 -11.3499 6.50664 -11.3499 12.5004H-8.28423C-8.28423 8.33164 -4.90298 4.95352 -0.737352 4.95352C3.42827 4.95352 6.81265 8.33164 6.81265 12.5004H10.3501C10.3501 6.50664 5.4939 1.65039 -0.499853 1.65039Z" fill="#EF2222"/>
<path d="M8.46255 12.4996H6.81255C6.81255 8.33086 3.4313 4.95273 -0.734327 4.95273C-4.89995 4.95273 -8.28433 8.33086 -8.28433 12.4996H-9.93433C-9.93433 7.41836 -5.81558 3.30273 -0.737452 3.30273C4.34067 3.30273 8.46255 7.41836 8.46255 12.4996Z" fill="#2AE1ED"/>
</svg>
