<svg width="18" height="20" viewBox="0 0 18 20" fill="none" xmlns="http://www.w3.org/2000/svg">
<path d="M6.85688 10.4399L6.72799 10.3414C6.72799 10.3414 5.41569 9.1677 6.63426 8.26077C7.43101 7.66572 8.28244 7.38667 8.88782 7.10351C9.3565 6.8819 9.55959 6.80393 10.454 6.42228L11.8366 5.84776V5.83955C12.567 5.79851 13.2192 5.4579 13.684 4.93262L13.6879 4.93672C13.6879 4.93672 16.539 6.71775 17.699 11.7982C17.7576 12.0608 17.8044 12.3276 17.8513 12.5902C18.07 13.8952 18.3629 16.6365 16.1641 17.8513C16.0352 17.9251 15.8907 17.9703 15.7579 18.0359C15.3009 18.2534 13.848 18.5694 11.2429 15.7748L8.88782 13.727L8.53241 14.1004L3.89639 18.9757L3.5566 19.3286C3.42771 19.464 3.22462 19.4928 3.06449 19.3984L0.158676 17.6461C0.0180722 17.5599 -0.0405126 17.3752 0.0297893 17.2152L0.0961855 17.0633C0.0961855 17.0633 0.322714 16.4888 0.912468 16.14C1.82639 15.5983 2.68564 16.5052 2.68564 16.5052L6.85688 10.4399ZM9.20027 9.40982C9.46586 9.51241 9.75097 9.68888 10.0478 9.95972C11.7155 11.4822 12.4068 12.0444 12.4068 12.0444C12.4068 12.0444 11.9381 10.3824 11.114 9.40161C11.0555 9.33595 10.9734 9.30312 10.8875 9.31133L9.20027 9.40982Z" fill="#00ACC1"/>
<path d="M11.6688 0C13.2076 0 14.4535 1.3091 14.4535 2.92598C14.4535 3.70159 14.1645 4.40744 13.6841 4.93272C13.2193 5.458 12.5671 5.79861 11.8367 5.83965C11.782 5.84786 11.7274 5.84786 11.6688 5.84786C10.1338 5.84786 8.88794 4.53876 8.88794 2.92598C8.88794 1.3091 10.1338 0 11.6688 0Z" fill="#00ACC1"/>
<path d="M8.5325 14.1006L6.06412 19.8376C6.00163 19.9813 5.8415 20.0387 5.71262 19.9731L3.99413 19.0784L3.89648 18.9759L8.5325 14.1006Z" fill="#00ACC1"/>
</svg>
