<svg width="180" height="28" viewBox="0 0 180 28" fill="none" xmlns="http://www.w3.org/2000/svg">
<path d="M0 5C0 2.23858 2.23858 0 5 0H175C177.761 0 180 2.23858 180 5V28H0V5Z" fill="white"/>
<path d="M87.8569 14.4399L87.728 14.3414C87.728 14.3414 86.4157 13.1677 87.6343 12.2608C88.431 11.6657 89.2824 11.3867 89.8878 11.1035C90.3565 10.8819 90.5596 10.8039 91.454 10.4223L92.8366 9.84776V9.83955C93.567 9.79851 94.2192 9.4579 94.684 8.93262L94.6879 8.93672C94.6879 8.93672 97.539 10.7178 98.699 15.7982C98.7576 16.0608 98.8044 16.3276 98.8513 16.5902C99.07 17.8952 99.3629 20.6365 97.1641 21.8513C97.0352 21.9251 96.8907 21.9703 96.7579 22.0359C96.3009 22.2534 94.848 22.5694 92.2429 19.7748L89.8878 17.727L89.5324 18.1004L84.8964 22.9757L84.5566 23.3286C84.4277 23.464 84.2246 23.4928 84.0645 23.3984L81.1587 21.6461C81.0181 21.5599 80.9595 21.3752 81.0298 21.2152L81.0962 21.0633C81.0962 21.0633 81.3227 20.4888 81.9125 20.14C82.8264 19.5983 83.6856 20.5052 83.6856 20.5052L87.8569 14.4399ZM90.2003 13.4098C90.4659 13.5124 90.751 13.6889 91.0478 13.9597C92.7155 15.4822 93.4068 16.0444 93.4068 16.0444C93.4068 16.0444 92.9381 14.3824 92.114 13.4016C92.0555 13.336 91.9734 13.3031 91.8875 13.3113L90.2003 13.4098Z" fill="#00ACC1"/>
<path d="M92.6688 4C94.2076 4 95.4535 5.3091 95.4535 6.92598C95.4535 7.70159 95.1645 8.40744 94.6841 8.93272C94.2193 9.458 93.5671 9.79861 92.8367 9.83965C92.782 9.84786 92.7274 9.84786 92.6688 9.84786C91.1338 9.84786 89.8879 8.53876 89.8879 6.92598C89.8879 5.3091 91.1338 4 92.6688 4Z" fill="#00ACC1"/>
<path d="M89.5325 18.1006L87.0641 23.8376C87.0016 23.9813 86.8415 24.0387 86.7126 23.9731L84.9941 23.0784L84.8965 22.9759L89.5325 18.1006Z" fill="#00ACC1"/>
</svg>
