<svg width="54" height="55" viewBox="0 0 54 55" fill="none" xmlns="http://www.w3.org/2000/svg">
<path d="M26.2697 42.8603C33.7549 42.8603 39.8229 36.7923 39.8229 29.3071C39.8229 21.8219 33.7549 15.7539 26.2697 15.7539C18.7845 15.7539 12.7166 21.8219 12.7166 29.3071C12.7166 36.7923 18.7845 42.8603 26.2697 42.8603Z" fill="#FDD020" stroke="#FDD020" stroke-width="1.5" stroke-miterlimit="10" stroke-linecap="round" stroke-linejoin="round"/>
<path d="M26.2695 12.9102V1" stroke="#FDD020" stroke-width="1.5" stroke-miterlimit="10" stroke-linecap="round" stroke-linejoin="round"/>
<path d="M42.3066 22.016L52.0262 13.7568" stroke="#FDD020" stroke-width="1.5" stroke-miterlimit="10" stroke-linecap="round" stroke-linejoin="round"/>
<path d="M43.7673 37.0791L53.0001 41.9417" stroke="#FDD020" stroke-width="1.5" stroke-miterlimit="10" stroke-linecap="round" stroke-linejoin="round"/>
<path d="M34.5347 44.8564L38.9049 52.6343" stroke="#FDD020" stroke-width="1.5" stroke-miterlimit="10" stroke-linecap="round" stroke-linejoin="round"/>
<path d="M19.8363 44.8564L15.0955 53.6024" stroke="#FDD020" stroke-width="1.5" stroke-miterlimit="10" stroke-linecap="round" stroke-linejoin="round"/>
<path d="M10.2328 33.6768L1 38.0525" stroke="#FDD020" stroke-width="1.5" stroke-miterlimit="10" stroke-linecap="round" stroke-linejoin="round"/>
<path d="M14 17.6396L5.61914 10.1826" stroke="#FDD020" stroke-width="1.5" stroke-miterlimit="10" stroke-linecap="round" stroke-linejoin="round"/>
<path d="M36.7195 14.857L39.3914 10.8408" stroke="#FDD020" stroke-width="1.5" stroke-miterlimit="10" stroke-linecap="round" stroke-linejoin="round"/>
<path d="M44.2542 27.8462L49.598 27.3594" stroke="#FDD020" stroke-width="1.5" stroke-miterlimit="10" stroke-linecap="round" stroke-linejoin="round"/>
<path d="M39.8782 40.4814L42.3067 43.2308" stroke="#FDD020" stroke-width="1.5" stroke-miterlimit="10" stroke-linecap="round" stroke-linejoin="round"/>
<path d="M26.7568 45.8311V49.6813" stroke="#FDD020" stroke-width="1.5" stroke-miterlimit="10" stroke-linecap="round" stroke-linejoin="round"/>
<path d="M13.9999 39.5127L10.4263 43.0863" stroke="#FDD020" stroke-width="1.5" stroke-miterlimit="10" stroke-linecap="round" stroke-linejoin="round"/>
<path d="M10.7196 26.3916H5.61914" stroke="#FDD020" stroke-width="1.5" stroke-miterlimit="10" stroke-linecap="round" stroke-linejoin="round"/>
<path d="M20.5386 13.912L18.4973 8.89453" stroke="#FDD020" stroke-width="1.5" stroke-miterlimit="10" stroke-linecap="round" stroke-linejoin="round"/>
</svg>
