<svg width="46" height="46" viewBox="0 0 46 46" fill="none" xmlns="http://www.w3.org/2000/svg">
<path d="M22.1244 23.0467C22.5241 23.1936 22.9532 23.4462 23.3999 23.834C25.9098 26.0136 26.9502 26.8184 26.9502 26.8184C26.9502 26.8184 26.2449 24.4391 25.0046 23.035C24.9164 22.941 24.793 22.894 24.6637 22.9057L22.1244 23.0467ZM18.5976 24.5213L18.4036 24.3803C18.4036 24.3803 16.4286 22.7001 18.2626 21.4018C19.4617 20.5499 20.7431 20.1504 21.6542 19.745C22.3595 19.4278 22.6652 19.3162 24.0112 18.7698L26.092 17.9473V17.9356C27.1912 17.8768 28.1728 17.3892 28.8723 16.6372L28.8782 16.6431C28.8782 16.6431 33.1691 19.1928 34.9149 26.4659C35.003 26.8419 35.0736 27.2238 35.1441 27.5998C35.4733 29.468 35.9141 33.3924 32.6048 35.1314C32.4108 35.2372 32.1934 35.3018 31.9935 35.3958C31.3058 35.7071 29.1192 36.1595 25.1986 32.1587L21.6542 29.2271L21.1193 29.7617L14.1421 36.7411L13.6307 37.2464C13.4367 37.4402 13.1311 37.4814 12.8901 37.3462L8.51688 34.8377C8.30527 34.7143 8.21711 34.4499 8.32291 34.2208L8.42283 34.0034C8.42283 34.0034 8.76376 33.1809 9.65133 32.6816C11.0268 31.9061 12.3199 33.2044 12.3199 33.2044L18.5976 24.5213Z" fill="#00ACC1" fill-opacity="0.67"/>
<path d="M26.2186 9.16284C28.5345 9.16284 30.4096 11.0369 30.4096 13.3516C30.4096 14.462 29.9746 15.4725 29.2516 16.2245C28.5521 16.9765 27.5705 17.4641 26.4713 17.5228C26.389 17.5346 26.3067 17.5346 26.2186 17.5346C23.9085 17.5346 22.0334 15.6605 22.0334 13.3516C22.0334 11.0369 23.9085 9.16284 26.2186 9.16284Z" fill="#00ACC1" fill-opacity="0.67"/>
<path d="M21.119 29.7617L17.4041 37.9748C17.3101 38.1805 17.0691 38.2627 16.8751 38.1687L14.2888 36.888L14.1418 36.7411L21.119 29.7617Z" fill="#54C7D5"/>
</svg>
