<svg width="12" height="12" viewBox="0 0 12 12" fill="none" xmlns="http://www.w3.org/2000/svg">
<path d="M12 4.85548V7.14452C12 7.31684 11.8604 7.45667 11.6879 7.45667H7.45669V11.6878C7.45669 11.8604 7.31686 12 7.14454 12H4.85549C4.68328 12 4.54335 11.8603 4.54335 11.6878V7.45667H0.312145C0.13969 7.45667 0 7.31684 0 7.14452V4.85548C0 4.68313 0.13969 4.54333 0.312145 4.54333H4.54335V0.312144C4.54335 0.139621 4.68324 0 4.85549 0H7.14454C7.31686 0 7.45669 0.139621 7.45669 0.312144V4.54333H11.6879C11.8604 4.54333 12 4.68313 12 4.85548Z" fill="black"/>
</svg>
